<svg xmlns="http://www.w3.org/2000/svg" xmlns:xlink="http://www.w3.org/1999/xlink" width="1366" zoomAndPan="magnify" viewBox="0 0 1024.5 576" height="768" preserveAspectRatio="xMidYMid meet" version="1.0"><defs><filter x="0%" y="0%" width="100%" height="100%" id="ca24d93b76"><feColorMatrix values="0 0 0 0 1 0 0 0 0 1 0 0 0 0 1 0 0 0 1 0" color-interpolation-filters="sRGB"/></filter><clipPath id="af3e8271c8"><path d="M 0 407 L 1024 407 L 1024 575.859375 L 0 575.859375 Z M 0 407 " clip-rule="nonzero"/></clipPath><mask id="27d5f95d25"><g filter="url(#ca24d93b76)"><rect x="-102.45" width="1229.4" fill="#000000" y="-57.6" height="691.2" fill-opacity="0.88"/></g></mask><clipPath id="9e8355f55e"><path d="M 0 52 L 1024 52 L 1024 168.859375 L 0 168.859375 Z M 0 52 " clip-rule="nonzero"/></clipPath><clipPath id="a098fffeae"><path d="M 0 121 L 1024 121 L 1024 168.859375 L 0 168.859375 Z M 0 121 " clip-rule="nonzero"/></clipPath><clipPath id="87590c01dc"><path d="M 0 0.550781 L 842 0.550781 L 842 168.859375 L 0 168.859375 Z M 0 0.550781 " clip-rule="nonzero"/></clipPath><clipPath id="450e7ee1bb"><rect x="0" width="1024" y="0" height="169"/></clipPath></defs><g clip-path="url(#af3e8271c8)"><g mask="url(#27d5f95d25)"><g transform="matrix(1, 0, 0, 1, 0, 407)"><g clip-path="url(#450e7ee1bb)"><g clip-path="url(#9e8355f55e)"><path fill="#57a4d9" d="M 0 101.238281 L 0 245.429688 L 0 160.433594 C 12.273438 154.601562 25.957031 150.808594 40.480469 149.570312 C 32.042969 129.722656 17.851562 112.914062 0 101.238281 Z M 1053.234375 96.382812 L 1053.234375 164.746094 C 1024.984375 181.167969 1005.894531 209.007812 1004.28125 240.902344 C 991.148438 235.859375 976.667969 233.070312 961.453125 233.070312 C 956.714844 233.070312 952.054688 233.34375 947.484375 233.863281 C 928.90625 204.679688 893.664062 184.980469 853.238281 184.980469 C 825.074219 184.980469 799.425781 194.546875 780.171875 210.21875 C 780.164062 210.226562 780.160156 210.230469 780.152344 210.234375 C 760.335938 187.9375 729.644531 173.625 695.191406 173.625 C 665.851562 173.625 639.238281 184.003906 619.75 200.859375 C 619.738281 200.859375 619.726562 200.855469 619.71875 200.851562 C 609.390625 197.9375 598.394531 196.371094 586.980469 196.371094 C 562.554688 196.371094 540.023438 203.5625 521.90625 215.699219 C 502.085938 193.632812 471.554688 179.496094 437.3125 179.496094 C 408.191406 179.496094 381.75 189.71875 362.300781 206.359375 C 355.984375 205.335938 349.484375 204.804688 342.839844 204.804688 C 340.953125 204.804688 339.078125 204.847656 337.207031 204.933594 C 317.613281 180.347656 285.34375 164.308594 248.867188 164.308594 C 245 164.308594 241.179688 164.488281 237.414062 164.835938 C 223.976562 146.597656 203.753906 132.664062 179.925781 125.863281 C 186.429688 124.648438 193.136719 124.007812 199.996094 124.007812 C 228.160156 124.007812 253.8125 134.769531 273.0625 152.410156 C 273.070312 152.417969 273.078125 152.421875 273.085938 152.425781 C 292.898438 127.335938 323.589844 111.226562 358.042969 111.226562 C 387.382812 111.226562 413.996094 122.910156 433.484375 141.878906 C 433.496094 141.878906 433.507812 141.875 433.519531 141.871094 C 443.84375 138.589844 454.839844 136.824219 466.253906 136.824219 C 490.679688 136.824219 513.214844 144.917969 531.328125 158.578125 C 551.152344 133.746094 581.683594 117.832031 615.921875 117.832031 C 645.046875 117.832031 671.488281 129.34375 690.933594 148.066406 C 697.25 146.917969 703.75 146.316406 710.394531 146.316406 C 712.285156 146.316406 714.160156 146.363281 716.027344 146.460938 C 735.625 118.792969 767.890625 100.742188 804.367188 100.742188 C 808.234375 100.742188 812.058594 100.945312 815.820312 101.339844 C 835.144531 71.820312 868.503906 52.320312 906.414062 52.320312 C 936.882812 52.320312 964.40625 64.914062 984.070312 85.183594 C 989.992188 84.179688 996.074219 83.652344 1002.28125 83.652344 C 1020.699219 83.652344 1038.050781 88.257812 1053.234375 96.382812 " fill-opacity="1" fill-rule="nonzero"/></g><g clip-path="url(#a098fffeae)"><path fill="#cceaff" d="M 1053.234375 164.746094 L 1053.234375 292.875 L 0 292.875 L 0 160.433594 C 15.1875 153.214844 32.535156 149.121094 50.953125 149.121094 C 57.164062 149.121094 63.242188 149.589844 69.164062 150.484375 C 88.832031 132.472656 116.355469 121.28125 146.824219 121.28125 C 184.730469 121.28125 218.089844 138.605469 237.414062 164.835938 C 241.179688 164.488281 245 164.308594 248.867188 164.308594 C 285.34375 164.308594 317.613281 180.347656 337.207031 204.933594 C 339.078125 204.847656 340.953125 204.804688 342.839844 204.804688 C 349.484375 204.804688 355.984375 205.335938 362.300781 206.359375 C 381.75 189.71875 408.191406 179.496094 437.3125 179.496094 C 471.554688 179.496094 502.085938 193.632812 521.90625 215.699219 C 540.023438 203.5625 562.554688 196.371094 586.980469 196.371094 C 598.394531 196.371094 609.390625 197.9375 619.71875 200.851562 C 619.726562 200.855469 619.738281 200.859375 619.75 200.859375 C 639.238281 184.003906 665.851562 173.625 695.191406 173.625 C 729.644531 173.625 760.335938 187.9375 780.152344 210.234375 C 780.160156 210.230469 780.164062 210.226562 780.171875 210.21875 C 799.425781 194.546875 825.074219 184.980469 853.238281 184.980469 C 893.664062 184.980469 928.90625 204.679688 947.484375 233.863281 C 952.054688 233.34375 956.714844 233.070312 961.453125 233.070312 C 976.667969 233.070312 991.148438 235.859375 1004.28125 240.902344 C 1005.894531 209.007812 1024.984375 181.167969 1053.234375 164.746094 " fill-opacity="1" fill-rule="nonzero"/></g><g clip-path="url(#87590c01dc)"><path fill="#4481ab" d="M 224.710938 150.691406 C 224.59375 150.589844 224.488281 150.488281 224.371094 150.386719 C 224.488281 150.488281 224.59375 150.589844 224.710938 150.691406 Z M 229.289062 155.1875 C 229.179688 155.070312 229.066406 154.957031 228.960938 154.84375 C 229.066406 154.957031 229.179688 155.070312 229.289062 155.1875 Z M 226.152344 152.046875 C 226.097656 151.992188 226.042969 151.945312 225.984375 151.890625 C 226.042969 151.945312 226.097656 151.992188 226.152344 152.046875 Z M 232.25 158.425781 C 232.136719 158.292969 232.019531 158.164062 231.90625 158.03125 C 232.019531 158.164062 232.136719 158.292969 232.25 158.425781 Z M 227.558594 153.421875 C 227.65625 153.515625 227.753906 153.613281 227.851562 153.71875 C 227.753906 153.613281 227.65625 153.515625 227.558594 153.421875 Z M 230.691406 156.679688 C 230.667969 156.65625 230.640625 156.628906 230.617188 156.597656 C 230.640625 156.628906 230.667969 156.65625 230.691406 156.679688 Z M 233.527344 159.902344 C 233.445312 159.804688 233.359375 159.707031 233.269531 159.605469 C 233.359375 159.707031 233.445312 159.804688 233.527344 159.902344 Z M 40.480469 149.570312 C 43.925781 149.273438 47.421875 149.121094 50.953125 149.121094 C 57.164062 149.121094 63.242188 149.589844 69.164062 150.484375 C 88.832031 132.472656 116.355469 121.28125 146.824219 121.28125 C 158.367188 121.28125 169.492188 122.890625 179.929688 125.863281 L 179.925781 125.863281 C 186.429688 124.648438 193.136719 124.007812 199.996094 124.007812 C 228.160156 124.007812 253.8125 134.769531 273.0625 152.410156 C 273.070312 152.417969 273.078125 152.421875 273.085938 152.425781 C 292.898438 127.335938 323.589844 111.226562 358.042969 111.226562 C 387.382812 111.226562 413.996094 122.910156 433.484375 141.878906 C 433.496094 141.878906 433.507812 141.875 433.519531 141.871094 C 443.84375 138.589844 454.839844 136.824219 466.253906 136.824219 C 490.679688 136.824219 513.214844 144.917969 531.328125 158.578125 C 551.152344 133.746094 581.683594 117.832031 615.921875 117.832031 C 645.046875 117.832031 671.488281 129.34375 690.933594 148.066406 C 697.25 146.917969 703.75 146.316406 710.394531 146.316406 C 712.285156 146.316406 714.160156 146.363281 716.027344 146.460938 C 735.625 118.792969 767.890625 100.742188 804.367188 100.742188 C 808.234375 100.742188 812.058594 100.945312 815.820312 101.339844 C 822.628906 90.933594 831.1875 81.777344 841.074219 74.273438 C 824.109375 64.449219 803.847656 58.738281 782.089844 58.738281 C 752.964844 58.738281 726.527344 68.964844 707.078125 85.605469 C 700.765625 84.582031 694.261719 84.050781 687.617188 84.050781 C 685.726562 84.050781 683.851562 84.09375 681.988281 84.179688 C 662.386719 59.597656 630.121094 43.554688 593.648438 43.554688 C 589.777344 43.554688 585.957031 43.734375 582.191406 44.085938 C 562.867188 17.855469 529.511719 0.527344 491.601562 0.527344 C 461.132812 0.527344 433.609375 11.71875 413.941406 29.730469 C 408.023438 28.839844 401.9375 28.269531 395.734375 28.367188 C 323.546875 29.566406 297.4375 83.9375 295.820312 115.832031 C 282.6875 110.789062 268.207031 108 252.992188 108 C 248.257812 108 243.597656 108.273438 239.023438 108.792969 C 220.449219 79.609375 185.207031 59.910156 144.785156 59.910156 C 116.617188 59.910156 90.964844 69.476562 71.714844 85.148438 C 71.707031 85.152344 71.703125 85.160156 71.695312 85.164062 C 54.460938 65.773438 29 52.421875 0 49.269531 L 0 101.238281 C 17.851562 112.914062 32.042969 129.722656 40.480469 149.570312 Z M 282.589844 169.074219 C 282.59375 169.074219 282.597656 169.074219 282.597656 169.078125 C 282.597656 169.074219 282.59375 169.074219 282.589844 169.074219 Z M 235.011719 161.714844 C 234.917969 161.597656 234.828125 161.484375 234.734375 161.367188 C 234.828125 161.484375 234.917969 161.597656 235.011719 161.714844 Z M 235.945312 162.898438 C 236.050781 163.039062 236.164062 163.179688 236.269531 163.324219 C 236.164062 163.179688 236.050781 163.039062 235.945312 162.898438 Z M 190.828125 129.570312 C 190.820312 129.570312 190.816406 129.566406 190.8125 129.558594 C 190.816406 129.566406 190.820312 129.570312 190.828125 129.570312 Z M 222.910156 149.074219 C 222.9375 149.09375 222.957031 149.117188 222.980469 149.136719 C 222.957031 149.117188 222.9375 149.09375 222.910156 149.074219 Z M 201.074219 134.226562 C 201.101562 134.238281 201.132812 134.257812 201.160156 134.269531 C 201.132812 134.257812 201.101562 134.238281 201.074219 134.226562 Z M 210.835938 139.910156 C 210.773438 139.871094 210.71875 139.832031 210.660156 139.792969 C 210.71875 139.832031 210.773438 139.871094 210.835938 139.910156 Z M 197.050781 132.246094 C 197.0625 132.257812 197.074219 132.261719 197.085938 132.265625 C 197.074219 132.261719 197.0625 132.257812 197.050781 132.246094 Z M 277.582031 167.730469 C 277.621094 167.742188 277.667969 167.753906 277.714844 167.761719 C 277.667969 167.753906 277.621094 167.742188 277.582031 167.730469 Z M 206.878906 137.445312 C 206.933594 137.472656 206.984375 137.507812 207.039062 137.535156 C 206.984375 137.507812 206.933594 137.472656 206.878906 137.445312 Z M 221.109375 147.527344 C 221.199219 147.601562 221.285156 147.675781 221.375 147.75 C 221.285156 147.675781 221.199219 147.601562 221.109375 147.527344 Z M 212.476562 141 C 212.523438 141.035156 212.566406 141.058594 212.605469 141.089844 C 212.566406 141.058594 212.523438 141.035156 212.476562 141 Z M 219.507812 146.210938 C 219.597656 146.277344 219.679688 146.351562 219.765625 146.417969 C 219.679688 146.351562 219.597656 146.277344 219.507812 146.210938 Z M 216.277344 143.703125 C 216.183594 143.640625 216.097656 143.574219 216.007812 143.507812 C 216.097656 143.574219 216.183594 143.640625 216.277344 143.703125 Z M 214.371094 142.316406 C 214.371094 142.316406 214.375 142.316406 214.375 142.320312 C 214.375 142.316406 214.371094 142.316406 214.371094 142.316406 Z M 37.863281 149.820312 C 37.8125 149.828125 37.765625 149.832031 37.714844 149.835938 C 37.765625 149.832031 37.8125 149.828125 37.863281 149.820312 Z M 14.15625 154.828125 C 14.273438 154.792969 14.386719 154.753906 14.503906 154.722656 C 14.386719 154.753906 14.273438 154.792969 14.15625 154.828125 Z M 17.074219 153.9375 C 16.964844 153.96875 16.851562 153.996094 16.742188 154.03125 C 16.851562 153.996094 16.964844 153.96875 17.074219 153.9375 Z M 22.109375 152.582031 C 21.996094 152.609375 21.878906 152.636719 21.765625 152.667969 C 21.878906 152.636719 21.996094 152.609375 22.109375 152.582031 Z M 11.875 155.589844 C 11.910156 155.574219 11.953125 155.5625 11.992188 155.550781 C 11.953125 155.5625 11.910156 155.574219 11.875 155.589844 Z M 19.394531 153.277344 C 19.394531 153.28125 19.394531 153.28125 19.394531 153.28125 C 19.394531 153.28125 19.394531 153.28125 19.394531 153.277344 Z M 24.492188 152.023438 C 24.527344 152.015625 24.570312 152.003906 24.609375 151.992188 C 24.570312 152.003906 24.527344 152.015625 24.492188 152.023438 Z M 0 160.433594 C 0 160.433594 0.00390625 160.433594 0.00390625 160.433594 C 0.00390625 160.433594 0 160.433594 0 160.433594 Z M 2.5 159.28125 C 2.359375 159.347656 2.21875 159.414062 2.074219 159.480469 C 2.21875 159.414062 2.359375 159.347656 2.5 159.28125 Z M 6.859375 157.449219 C 6.949219 157.414062 7.035156 157.375 7.121094 157.34375 C 7.035156 157.375 6.949219 157.414062 6.859375 157.449219 Z M 4.902344 158.25 C 4.785156 158.292969 4.664062 158.34375 4.550781 158.394531 C 4.664062 158.34375 4.785156 158.292969 4.902344 158.25 Z M 9.683594 156.367188 C 9.542969 156.421875 9.398438 156.476562 9.257812 156.527344 C 9.398438 156.476562 9.542969 156.421875 9.683594 156.367188 Z M 272.699219 166.648438 C 272.644531 166.640625 272.589844 166.628906 272.542969 166.621094 C 272.589844 166.628906 272.644531 166.640625 272.699219 166.648438 Z M 264.671875 165.328125 C 264.792969 165.34375 264.917969 165.359375 265.042969 165.375 C 264.917969 165.359375 264.792969 165.34375 264.671875 165.328125 Z M 259.851562 164.800781 C 259.714844 164.789062 259.570312 164.777344 259.429688 164.757812 C 259.570312 164.777344 259.714844 164.789062 259.851562 164.800781 Z M 267.453125 165.722656 C 267.46875 165.722656 267.480469 165.726562 267.496094 165.726562 C 267.480469 165.726562 267.46875 165.722656 267.453125 165.722656 Z M 257.066406 164.582031 C 256.945312 164.570312 256.820312 164.566406 256.699219 164.558594 C 256.820312 164.566406 256.945312 164.570312 257.066406 164.582031 Z M 270.113281 166.164062 C 270.046875 166.148438 269.984375 166.140625 269.917969 166.128906 C 269.984375 166.140625 270.046875 166.148438 270.113281 166.164062 Z M 251.292969 164.335938 C 251.464844 164.339844 251.632812 164.339844 251.804688 164.34375 C 251.632812 164.339844 251.464844 164.335938 251.292969 164.335938 Z M 29.636719 150.992188 C 29.726562 150.976562 29.816406 150.960938 29.90625 150.945312 C 29.816406 150.960938 29.726562 150.976562 29.636719 150.992188 Z M 34.933594 150.175781 C 35.011719 150.160156 35.09375 150.148438 35.175781 150.140625 C 35.09375 150.148438 35.011719 150.160156 34.933594 150.175781 Z M 254.167969 164.421875 C 254.28125 164.425781 254.398438 164.433594 254.507812 164.4375 C 254.398438 164.433594 254.28125 164.425781 254.167969 164.421875 Z M 27.015625 151.488281 C 27.070312 151.480469 27.125 151.460938 27.183594 151.453125 C 27.125 151.460938 27.070312 151.480469 27.015625 151.488281 " fill-opacity="1" fill-rule="nonzero"/></g></g></g></g></g></svg>